<svg width="24" height="24" viewBox="0 0 24 24" fill="none" xmlns="http://www.w3.org/2000/svg">
<path d="M15.4706 14.1249L16.2456 11.3249C16.3123 11.1249 16.3081 10.9249 16.2331 10.7249C16.1581 10.5249 16.0289 10.3582 15.8456 10.2249L13.4706 8.59991C13.3373 8.49991 13.1914 8.47907 13.0331 8.53741C12.8748 8.59574 12.7706 8.70824 12.7206 8.87491L11.9456 11.6749C11.8789 11.8749 11.8831 12.0749 11.9581 12.2749C12.0331 12.4749 12.1623 12.6416 12.3456 12.7749L14.7206 14.3999C14.8539 14.4999 14.9998 14.5207 15.1581 14.4624C15.3164 14.4041 15.4206 14.2916 15.4706 14.1249ZM4.09561 18.8249L3.27061 18.4249C2.75394 18.2082 2.40394 17.8374 2.22061 17.3124C2.03728 16.7874 2.06228 16.2666 2.29561 15.7499L4.09561 11.8499V18.8249ZM8.09561 20.9999C7.54561 20.9999 7.07478 20.7999 6.68311 20.3999C6.29144 19.9999 6.09561 19.5249 6.09561 18.9749V12.9999L8.77061 20.3499C8.82061 20.4666 8.86228 20.5791 8.89561 20.6874C8.92894 20.7957 8.98728 20.8999 9.07061 20.9999H8.09561ZM13.2456 20.8749C12.7289 21.0582 12.2123 21.0332 11.6956 20.7999C11.1789 20.5666 10.8289 20.1916 10.6456 19.6749L6.22061 7.44991C6.03728 6.93324 6.06228 6.42074 6.29561 5.91241C6.52894 5.40407 6.90394 5.05824 7.42061 4.87491L14.9456 2.12491C15.4623 1.94157 15.9748 1.96657 16.4831 2.19991C16.9914 2.43324 17.3373 2.80824 17.5206 3.32491L21.9706 15.5499C22.1539 16.0666 22.1289 16.5791 21.8956 17.0874C21.6623 17.5957 21.2873 17.9416 20.7706 18.1249L13.2456 20.8749Z" fill="white"/>
</svg>
