<svg width="24" height="24" viewBox="0 0 24 24" fill="none" xmlns="http://www.w3.org/2000/svg">
<path d="M1.2002 14.6798H4.25432L6.95679 12.1054C6.95679 12.1054 7.59403 11.3606 8.62886 11.3606H16.934L19.013 9.30625H8.65706C8.65706 9.30625 6.87139 9.23092 5.79427 10.2134C4.71715 11.1958 1.2002 14.6798 1.2002 14.6798Z" fill="#ED2D26"/>
<path d="M4.80375 14.6798H7.63109L8.41819 13.9039C8.41819 13.9039 8.81053 13.5193 9.39662 13.5193H14.7468L16.6372 11.6361H9.02845C9.02845 11.6361 8.01659 11.593 7.40632 12.1497C6.79606 12.7064 4.80375 14.6798 4.80375 14.6798Z" fill="#ED2D26"/>
<path d="M17.4388 14.6753H14.0934L19.4552 9.2998H22.8002L17.4388 14.6753Z" fill="#ED2D26"/>
<path d="M19.0202 14.6975V14.1537H18.8188V14.0433H19.3626V14.1537H19.1612V14.6975H19.0202Z" fill="#ED2D26"/>
<path d="M19.4476 14.6975V14.0433H19.6542L19.7783 14.4888L19.8991 14.0433H20.1066V14.6975H19.9781V14.1823L19.8448 14.6975H19.7118L19.5765 14.1835V14.6975H19.4476Z" fill="#ED2D26"/>
</svg>
