<svg width="24" height="24" viewBox="0 0 24 24" fill="none" xmlns="http://www.w3.org/2000/svg">
<path fill-rule="evenodd" clip-rule="evenodd" d="M5 19.0215C5 20.3238 6.05565 21.3794 7.35766 21.3794H16.4092C17.7113 21.3794 18.7671 20.3238 18.7671 19.0215V4.82554C18.7671 3.52374 17.7113 2.46799 16.4092 2.50074H7.35766C6.05565 2.46799 5 3.52374 5 4.82554V19.0215V19.0215Z" fill="#1A3B73"/>
<path fill-rule="evenodd" clip-rule="evenodd" d="M7.35728 3.00635C6.35255 3.00635 5.53809 3.82081 5.53809 4.82554V19.0215C5.53809 20.0263 6.35244 20.8407 7.35728 20.8407H16.4088C17.4136 20.8407 18.2282 20.0263 18.2282 19.0215V4.82554C18.2282 3.82081 17.4136 3.00635 16.4088 3.00635H7.35728V3.00635Z" fill="white"/>
<path fill-rule="evenodd" clip-rule="evenodd" d="M7.35744 3.28271C6.50546 3.28271 5.81445 3.9734 5.81445 4.82548V19.0214C5.81445 19.8736 6.50546 20.5644 7.35744 20.5644H16.409C17.2614 20.5644 17.9517 19.8735 17.9517 19.0214V4.82548C17.9517 3.9734 17.2613 3.28271 16.409 3.28271H7.35744Z" fill="#1A3B73"/>
<path fill-rule="evenodd" clip-rule="evenodd" d="M8.85638 13.7204C9.76954 13.7204 10.5102 13.2262 10.5102 12.0931C10.5102 10.999 9.76954 10.4658 8.85638 10.4658C7.94321 10.4658 7.20313 10.999 7.20313 12.0931C7.20302 13.2262 7.9431 13.7204 8.85638 13.7204Z" fill="white"/>
<path fill-rule="evenodd" clip-rule="evenodd" d="M10.1151 10.6434V9.95465H9.66871C9.53887 9.95465 9.49585 9.90395 9.49585 9.72968V8.42421C9.49585 8.32702 9.52795 8.30713 9.58536 8.30713C9.75508 8.30713 9.83465 8.60106 9.83465 8.96019L10.5826 8.96181V7.55645H7.18164V8.96181L7.92389 8.96019C7.92389 8.57944 8.05264 8.30713 8.21102 8.30713C8.27966 8.30713 8.30107 8.32702 8.30107 8.42421V9.72968C8.30107 9.88762 8.25794 9.95465 8.12864 9.95465H7.69276V10.6434H10.1151V10.6434ZM9.21996 19.4427V19.7997H7.20964V19.0536H7.46898C7.54985 19.0536 7.56606 19.0052 7.56606 18.9344V17.4758C7.56606 17.4163 7.55525 17.3456 7.46898 17.3456H7.1878V16.5945H8.09037C7.67406 16.4216 7.56077 16.1462 7.56077 15.8162V14.4276C7.56077 14.3464 7.54487 14.2977 7.45266 14.2977L7.19342 14.2986V13.5402H10.6221V14.2986L10.3624 14.2977C10.2705 14.2977 10.2543 14.3464 10.2543 14.4276V15.8162C10.2543 16.1678 10.0849 16.5298 9.72806 16.627C10.0577 16.6922 10.2525 16.8489 10.3841 17.1709C10.514 17.4952 10.3994 17.8353 10.1703 18.0731C10.1252 18.1143 10.0674 18.1445 10.0674 18.1445C10.2013 18.1987 10.2783 18.4323 10.2783 18.6885L10.2889 19.017C10.2956 19.059 10.3187 19.0849 10.4198 19.0849L10.6651 19.0861V19.8362H10.1279C9.85227 19.8361 9.36072 19.7943 9.21996 19.4427V19.4427ZM7.90984 6.61863C7.90984 6.77798 7.91254 6.82782 8.22323 6.84155V7.0276H7.20553V6.84155C7.40682 6.82782 7.47536 6.78209 7.47536 6.61863V5.89195C7.47536 5.72839 7.47277 5.68515 7.26867 5.6672V5.46775L7.61125 5.48775C7.85514 5.48775 8.35188 5.39542 8.58798 5.53347C8.74019 5.62288 8.83619 5.77628 8.83619 5.93984C8.83619 6.33021 8.46009 6.42729 8.1187 6.42729H7.90984V6.61863V6.61863ZM10.281 6.01865C10.1936 5.78633 10.087 5.69931 9.78805 5.69931C9.48633 5.69931 9.41358 6.07097 9.41358 6.3021C9.41358 6.55388 9.54536 6.86209 9.85822 6.86209C10.0092 6.86209 10.086 6.75117 10.086 6.59701C10.086 6.47226 9.98081 6.42513 9.86557 6.42513V6.25929H10.6973V6.42513L10.6644 6.42967C10.4996 6.45226 10.5135 6.52664 10.5135 6.66728V7.01116C10.5135 7.077 10.4247 7.09105 10.3274 7.03776L10.2003 6.96122C10.1317 6.99981 10.0849 7.03776 10.0246 7.06143C9.94816 7.09105 9.80438 7.09127 9.71725 7.09127C9.23283 7.09127 8.91554 6.72609 8.91554 6.28416C8.91554 5.82168 9.2698 5.47067 9.75973 5.47067C9.89205 5.47067 10.0993 5.51348 10.2123 5.57477L10.3152 5.48839H10.466L10.4772 5.96168C10.477 6.07746 10.3326 6.09713 10.281 6.01865V6.01865ZM12.4424 6.63377C12.5101 6.77603 12.5154 6.81398 12.6949 6.84284L12.7234 6.84511V7.0276H11.7773V6.84511C11.8316 6.8383 11.9928 6.84284 11.9928 6.77387C11.9928 6.74274 11.9669 6.68479 11.9564 6.65355L11.8862 6.48891H11.3274L11.2545 6.65355C11.2414 6.68274 11.2234 6.72685 11.2234 6.75571C11.2234 6.83398 11.3664 6.83398 11.4287 6.84284L11.4547 6.84511V7.0276H10.6515V6.84511C10.8802 6.82501 10.9296 6.70242 11.0074 6.54458L11.5116 5.4658H11.9151L12.4424 6.63377Z" fill="white"/>
<path fill-rule="evenodd" clip-rule="evenodd" d="M7.99464 5.68457C7.93486 5.68457 7.90773 5.70652 7.90924 5.73765V6.16002H7.97313C8.06167 6.16002 8.13994 6.15904 8.20112 6.13256C8.27636 6.09969 8.28912 6.01213 8.28912 5.93732C8.28923 5.74197 8.17648 5.68457 7.99464 5.68457ZM11.7998 6.29504L11.6074 5.86348L11.4069 6.29504H11.7998Z" fill="#1A3B73"/>
<path fill-rule="evenodd" clip-rule="evenodd" d="M9.90722 10.4753V10.131H9.43091C9.3441 10.131 9.27686 10.0304 9.27686 9.92988V8.23349C9.27686 8.14647 9.39102 8.12863 9.51155 8.12863C9.75955 8.12863 10.014 8.34041 10.014 8.77964L10.4017 8.78083V7.71924H7.36523V8.78083L7.75355 8.77964C7.75355 8.34041 8.00738 8.12863 8.25537 8.12863C8.37612 8.12863 8.48996 8.14647 8.48996 8.23349V9.92988C8.48996 10.0305 8.42304 10.131 8.33591 10.131H7.85992V10.4753H9.90722V10.4753ZM8.85633 13.5442C9.67187 13.5442 10.3329 13.103 10.3329 12.0913C10.3329 11.1144 9.67198 10.6384 8.85633 10.6384C8.04122 10.6384 7.38026 11.1144 7.38026 12.0913C7.38026 13.103 8.04122 13.5442 8.85633 13.5442V13.5442Z" fill="#CF4044"/>
<path fill-rule="evenodd" clip-rule="evenodd" d="M8.87247 13.1622C9.1996 13.1622 9.46478 12.892 9.46478 12.0915C9.46478 11.1861 9.19971 11.0205 8.87247 11.0205C8.54535 11.0205 8.28027 11.2556 8.28027 12.0915C8.28038 12.9621 8.54535 13.1622 8.87247 13.1622Z" fill="white"/>
<path fill-rule="evenodd" clip-rule="evenodd" d="M8.87024 12.9583C9.07834 12.9583 9.24666 12.7398 9.24666 12.0912C9.24666 11.3577 9.07834 11.2241 8.87024 11.2241C8.66257 11.2241 8.49414 11.4145 8.49414 12.0912C8.49414 12.7962 8.66257 12.9583 8.87024 12.9583Z" fill="#1A3B73"/>
<path fill-rule="evenodd" clip-rule="evenodd" d="M10.0533 14.323C10.0533 14.15 10.1327 14.1258 10.2194 14.1258H10.4092L10.4064 13.7183H9.19434V14.1245H9.41369C9.63282 14.1245 9.60633 14.2235 9.60633 14.3496V15.8517C9.58633 16.0114 9.45163 16.1975 9.06624 16.1975C8.68074 16.1975 8.50312 16.0445 8.50312 15.8317V14.323C8.50312 14.15 8.58269 14.1258 8.66906 14.1258H8.9337V13.7183H7.38672V14.1245H7.55255C7.77222 14.1245 7.74584 14.2235 7.74584 14.3496V15.8451C7.74584 16.2505 8.12443 16.6027 8.995 16.6027C9.91876 16.6027 10.0536 16.1677 10.0536 15.7583V14.323H10.0533V14.323Z" fill="#CF4044"/>
<path fill-rule="evenodd" clip-rule="evenodd" d="M9.30085 14.3076C9.3549 14.3076 9.39176 14.3684 9.39176 14.4436V15.7548C9.39176 15.894 9.24452 16.0071 9.06291 16.0071C8.88183 16.0071 8.73438 15.894 8.73438 15.7548V14.4436C8.73438 14.3684 8.7707 14.3076 8.82508 14.3076H9.30085V14.3076Z" fill="#1A3B73"/>
<path fill-rule="evenodd" clip-rule="evenodd" d="M10.4759 19.2515C10.3591 19.2515 10.1679 19.2642 10.1154 19.1727C10.0274 18.9724 10.1379 18.6076 10.0117 18.3725C9.95103 18.2431 9.80044 18.1689 9.70358 18.1255C9.81925 18.093 9.94898 18.0214 10.0417 17.949C10.2731 17.7512 10.2749 17.3738 10.1324 17.0971C10.003 16.881 9.7759 16.7802 9.42889 16.7802L7.375 16.7773L7.37402 17.1751L7.62958 17.1704C7.69499 17.1704 7.76526 17.2432 7.76526 17.3198L7.76623 19.0852C7.76623 19.1616 7.6951 19.2347 7.62958 19.2347L7.37402 19.23L7.375 19.6274H9.02673L9.02728 19.23H8.71236C8.64685 19.23 8.56794 19.1439 8.56794 19.0671L8.5674 18.3402L8.99009 18.3404C9.11938 18.3404 9.249 18.424 9.27181 18.6382C9.28954 18.9185 9.25689 19.059 9.35429 19.3068C9.48369 19.5734 9.72466 19.6469 9.98411 19.6469H10.4758V19.2515H10.4759V19.2515Z" fill="#CF4044"/>
<path fill-rule="evenodd" clip-rule="evenodd" d="M8.77441 18.9341C8.77441 18.9341 8.77441 18.8642 8.77441 18.9341C8.77441 19.0048 8.82847 19.0265 8.86911 19.0265H9.08835L9.07732 18.6696C9.0743 18.5724 9.05808 18.5347 8.9823 18.5347H8.7796L8.77441 18.9341Z" fill="#1A3B73"/>
<path fill-rule="evenodd" clip-rule="evenodd" d="M8.99721 17.1729C9.14759 17.1729 9.36455 17.2428 9.40347 17.4251C9.42509 17.5674 9.41244 17.7102 9.29818 17.8259C9.24456 17.8721 9.15029 17.9076 9.04035 17.9076L8.56858 17.908L8.56836 17.1714L8.99721 17.1729V17.1729Z" fill="white"/>
<path fill-rule="evenodd" clip-rule="evenodd" d="M9.20105 17.554C9.20105 17.6646 9.10127 17.7344 9.01738 17.7344H8.76074V17.3452H8.95241C9.04181 17.3452 9.09608 17.3669 9.13889 17.4081C9.17435 17.4399 9.20105 17.4888 9.20105 17.554Z" fill="#1A3B73"/>
<path fill-rule="evenodd" clip-rule="evenodd" d="M12.2806 4.23939L15.9158 6.52873C15.8044 6.96083 16.1251 7.32071 15.9745 7.73324C15.9353 8.35517 15.2608 8.47949 14.8945 8.86607C14.554 9.19958 14.1026 9.24574 13.6965 9.416L13.6507 9.40249C13.5525 9.07526 13.2645 8.82683 13.1467 8.50597C12.8519 8.39473 12.5048 8.36846 12.2236 8.51862C11.962 8.71537 11.8175 9.02953 11.8636 9.32422C11.8702 9.62519 12.1906 9.8348 12.4133 9.96582C12.1253 10.1685 12.2953 10.594 12.2691 10.8628C12.2235 11.7728 13.3364 12.1586 13.3034 13.0624C13.2186 13.6512 13.1597 14.3321 13.5393 14.8033C13.847 15.0325 13.8402 15.4121 14.0302 15.7004C14.0501 15.9686 14.351 16.1522 14.2203 16.4398C14.4035 16.6427 14.0761 16.6629 14.0761 16.8458C14.1025 17.0095 13.9188 16.9837 13.8402 17.0554C13.6178 17.0356 13.4869 17.2781 13.3364 17.3958L12.9764 17.8081C12.5181 17.9981 12.0993 18.2731 11.7064 18.6263C11.5493 18.6723 11.3464 18.6657 11.2809 18.8621C11.2284 18.9407 11.2479 19.0259 11.2347 19.111C10.9992 19.3403 10.8159 19.615 10.8096 19.942C10.8159 20.1717 10.9143 20.3611 10.9666 20.5707L15.0844 20.5705C15.2218 20.4786 15.4967 20.466 15.4767 20.2238C15.3785 20.0799 15.1429 20.0075 15.0972 19.8177C15.2085 19.7132 15.4308 19.7848 15.5225 19.6278C15.5688 18.5543 15.7126 17.4742 15.8832 16.4269C15.732 15.2747 15.464 14.1749 15.1429 13.0949C15.0514 12.4863 14.8943 11.8971 14.6914 11.334L14.7043 11.2227C15.2284 10.6268 15.4902 9.91977 15.994 9.30444C16.3673 8.57776 16.5901 7.77918 16.8387 7.00007C16.8125 6.81035 16.8649 6.57468 16.655 6.4763C16.4393 6.29966 16.1772 6.43057 15.9486 6.35198L12.0661 3.98232C11.7904 3.90372 11.4877 4.30079 11.2938 4.51268C11.2544 4.57906 11.3853 4.68284 11.4706 4.73538C11.7979 4.82694 11.8652 4.39301 12.0879 4.22923C12.119 4.20923 12.219 4.20166 12.2806 4.23939V4.23939Z" fill="white"/>
<path fill-rule="evenodd" clip-rule="evenodd" d="M14.7954 9.79492C14.658 10.0108 14.4744 10.2399 14.2781 10.4038C14.2194 10.3319 14.1474 10.2597 14.1542 10.1551C14.3632 10.0173 14.5794 9.89978 14.7954 9.79492V9.79492ZM14.3761 20.3802C14.4417 20.4654 14.5542 20.4702 14.5872 20.562L11.1328 20.5655C11.1328 20.5655 11.1491 20.4848 11.1687 20.4328C11.3323 19.9677 11.7185 19.6601 12.0984 19.3133C12.3343 19.3788 12.5303 19.5555 12.7724 19.6144C13.3157 18.9204 14.0948 18.3706 14.671 17.6963C14.4289 18.5345 14.2847 19.4707 14.3761 20.3802V20.3802ZM18.8534 21.0064C18.8534 20.7362 19.074 20.5154 19.3465 20.5154C19.4767 20.5155 19.6015 20.5672 19.6935 20.6593C19.7855 20.7514 19.8372 20.8762 19.8372 21.0064C19.8372 21.279 19.6183 21.4998 19.3465 21.4998C19.2817 21.4998 19.2176 21.487 19.1577 21.4623C19.0979 21.4375 19.0435 21.4011 18.9977 21.3553C18.9519 21.3095 18.9156 21.2551 18.8908 21.1952C18.866 21.1353 18.8533 21.0712 18.8534 21.0064V21.0064ZM19.7596 21.0064C19.7596 20.7676 19.5859 20.5805 19.3466 20.5805C19.1065 20.5805 18.9311 20.7676 18.9311 21.0064C18.9311 21.2478 19.1065 21.4348 19.3466 21.4348C19.5859 21.4347 19.7596 21.2478 19.7596 21.0064ZM19.5924 21.2816H19.5117L19.3544 21.0281H19.2309V21.2816H19.1635V20.7323H19.404C19.5496 20.7323 19.599 20.7866 19.599 20.8775C19.599 20.9856 19.5236 21.0256 19.4258 21.0282L19.5924 21.2816V21.2816ZM19.3338 20.975C19.4117 20.975 19.5261 20.9879 19.5261 20.8763C19.5261 20.7906 19.456 20.7802 19.3885 20.7802H19.231V20.975H19.3338V20.975Z" fill="#1A3B73"/>
</svg>
