<svg width="16" height="16" viewBox="0 0 16 16" fill="none" xmlns="http://www.w3.org/2000/svg">
<g clip-path="url(#clip0_2520_44164)">
<g clip-path="url(#clip1_2520_44164)">
<path d="M1.5791 7.46681C1.93643 6.16281 3.86443 4.65348 3.86443 4.65348C7.92844 1.30948 13.5311 2.64281 13.5311 2.64281C13.8004 2.69081 13.7178 2.85348 13.6698 2.97081C13.6218 3.08814 13.0404 3.93881 13.0404 3.93881L8.11777 4.41081L5.05377 5.16548L2.5151 7.02148L1.74977 7.50414L1.5791 7.46681Z" fill="#878687"/>
<path d="M15.9867 11.1812C16.0293 11.4185 15.976 11.6238 15.8373 11.7785C15.688 11.9252 15.4293 12.2665 15.4293 12.2665C15.4053 12.2958 15.376 12.3278 15.352 12.3572C15.12 12.6238 14.8987 12.7705 14.5333 12.7972C14.5147 12.7972 14.488 12.8025 14.4693 12.7972C14.0987 12.7865 13.792 12.4532 13.7147 12.2825C13.6267 12.0985 13.6347 11.9625 13.576 11.7998C13.5173 11.6452 13.408 11.5092 13.336 11.3652C13.3013 11.3065 13.2853 11.2638 13.2693 11.2132C13.2427 11.1438 13.2213 11.0585 13.1733 10.9198C13.096 10.6958 12.84 10.2025 12.84 10.2025L10.0187 8.80249C10.0187 8.80249 9.62667 9.14649 9.208 9.55449C8.95467 9.80516 8.69067 10.0852 8.49867 10.3198C7.984 10.9412 7.704 11.7705 7.55733 12.5652C7.45333 13.1092 7.4 13.6212 7.4 13.6212C6.65333 13.4932 5.93333 13.2798 5.23467 12.9918H5.22667C4.74133 12.7998 4.26933 12.5705 3.81867 12.3118C2.31467 11.4692 1 10.2958 0 8.88249C0.357333 8.55449 0.821333 8.13849 1.40267 7.61583C1.90933 7.12249 2.39733 6.69316 2.85867 6.33316C3.22933 6.02116 3.58667 5.76249 3.92267 5.52783C6.28267 3.90116 7.97333 3.72783 9.25067 3.61049C10.936 3.44516 12.68 3.78383 13.056 3.83983C13.432 3.89583 14.5093 3.94916 14.5707 4.05849C14.5813 4.07449 14.592 4.09049 14.5893 4.11983C14.5867 4.15716 14.5387 4.20783 14.4907 4.24249C14.4347 4.28516 13.9067 4.62916 13.9067 4.62916C13.7253 4.75449 13.4587 4.89049 13.4213 5.00249C13.376 5.12516 13.3707 5.16249 13.664 5.50649C13.9547 5.85316 14.1627 6.23716 14.2613 6.42916C14.36 6.62116 14.5333 6.96516 14.736 7.81849C14.8027 8.09583 14.8907 8.39983 14.9733 8.67449C15.1307 9.22649 15.2853 9.67183 15.2853 9.67183C15.3013 9.71449 15.3253 9.75716 15.3493 9.81583C15.5493 10.2105 15.96 10.9705 15.992 11.1812H15.9867Z" fill="#CC9466"/>
<path d="M15.0107 11.3999C14.8854 11.1012 14.5467 10.5066 14.1494 9.95456C13.7547 9.40256 13.1547 8.8639 12.92 8.68256C12.6854 8.50123 12.408 8.39456 12.088 8.26123C11.7654 8.12523 11.4107 7.8879 11.2 7.6639C10.9894 7.4399 10.816 7.26923 10.6294 7.30123C10.4427 7.33323 10.3787 7.54656 10.1627 8.12256C9.94404 8.69856 10.0134 8.7999 10.0134 8.7999L12.8347 10.2026C12.8347 10.2026 13.096 10.6959 13.1734 10.9226C13.2507 11.1492 13.256 11.2212 13.3307 11.3626C13.4054 11.5039 13.5174 11.6399 13.576 11.7999C13.6347 11.9626 13.624 12.0959 13.7094 12.2772C13.7947 12.4586 14.1334 12.8266 14.536 12.7919C14.9387 12.7599 15.0827 12.6452 15.216 12.4906C15.216 12.4906 15.36 12.2319 15.0107 11.3972V11.3999Z" fill="#BA8053"/>
<path d="M12.9573 11.344C12.8373 11.36 12.7146 11.344 12.6026 11.2854L2.85326 6.32803C2.55726 6.17869 2.43993 5.81869 2.59193 5.52269C2.74126 5.22669 3.10126 5.10936 3.39726 5.26136L12.8319 10.0587L14.7733 8.75469C15.0479 8.57069 15.4186 8.64269 15.6053 8.91736C15.7893 9.19203 15.7173 9.56269 15.4426 9.74936L13.2106 11.2507C13.1333 11.3014 13.0479 11.3334 12.9599 11.3467L12.9573 11.344Z" fill="#E9E2DB"/>
<path d="M12.9576 11.3442C12.7389 11.3762 12.5096 11.2829 12.3762 11.0855C12.1922 10.8109 12.2642 10.4402 12.5389 10.2535L14.7709 8.7522C15.0456 8.5682 15.4162 8.6402 15.6029 8.91487C15.7869 9.18954 15.7149 9.5602 15.4402 9.74687L13.2082 11.2482C13.1309 11.3015 13.0456 11.3309 12.9576 11.3442Z" fill="#D2D2D2"/>
<path d="M13.0377 7.8371C13.2969 7.8371 13.507 7.62698 13.507 7.36777C13.507 7.10856 13.2969 6.89844 13.0377 6.89844C12.7785 6.89844 12.5684 7.10856 12.5684 7.36777C12.5684 7.62698 12.7785 7.8371 13.0377 7.8371Z" fill="#515151"/>
</g>
</g>
<defs>
<clipPath id="clip0_2520_44164">
<rect width="16" height="16" fill="white"/>
</clipPath>
<clipPath id="clip1_2520_44164">
<rect width="16" height="16" fill="white"/>
</clipPath>
</defs>
</svg>
