<svg width="56" height="56" viewBox="0 0 56 56" fill="none" xmlns="http://www.w3.org/2000/svg">
<path d="M4.57206 42.1075C2.04055 42.1075 0 39.9977 0 37.3803V15.7272C0 13.1098 2.04055 11 4.57206 11H51.4279C53.9595 11 56 13.1098 56 15.7272V37.3962C56 40.0136 53.9595 42.1234 51.4279 42.1234H4.57206V42.1075Z" fill="white"/>
<path d="M53.3696 13.6037C52.8019 13.0167 52.0194 12.6836 51.2216 12.6836H38.1191L45.6523 25.6913L46.3427 25.7865L46.7416 26.3734V26.9445L47.2326 27.0397L47.6622 27.6584V28.1977L48.1531 28.2929L48.6441 28.8639V30.0854C48.6441 30.0854 49.7027 31.1006 50.6539 31.4814C51.3137 31.751 51.4057 32.8456 51.7739 33.4484C52.2956 34.2733 52.986 34.6381 52.8326 35.114C52.495 36.3831 51.2216 38.5246 50.0556 38.6515C50.0556 38.6515 47.1252 38.6515 45.4068 38.6515V40.7137H51.2216C52.9093 40.7137 54.2748 39.3019 54.2748 37.5569V15.8403C54.2594 14.9996 53.9372 14.1906 53.3696 13.6037Z" fill="#EE3536"/>
<path d="M33.8608 12.5703H4.57199C3.75884 12.5703 2.99171 12.9034 2.42404 13.4904C1.85637 14.0773 1.53418 14.8863 1.53418 15.7112V37.3802C1.53418 38.2209 1.85637 39.0141 2.42404 39.6169C2.99171 40.2038 3.77418 40.5369 4.57199 40.5369H23.5966C23.121 39.7121 22.584 38.7761 22.4153 38.4906H20.1446C20.1446 32.6689 22.0624 29.4328 24.3331 28.8141C24.6553 28.7507 24.5019 27.1485 24.1029 26.6726C24.1029 26.6726 23.0136 26.7043 22.7835 26.6409C22.492 26.5457 22.6914 26.2602 22.6914 26.2602L23.7501 23.8807L23.612 23.2303H19.6843C19.6229 23.2303 22.9216 20.8826 22.9216 20.8826C23.0903 14.7118 29.212 14.2359 32.9095 16.774C35.0882 18.281 35.2723 21.2474 35.0882 23.3255C35.0575 23.4365 34.5205 23.3572 34.5205 23.3572C34.5205 23.3572 34.1523 25.6098 35.1188 25.6098H39.4301C41.1791 25.5463 42.8821 26.7678 42.8821 26.7678L43.3117 25.2291L33.8608 12.5703ZM7.82459 36.0794C6.67391 36.0953 5.72267 35.1435 5.70733 33.9538C5.69199 32.764 6.61254 31.7805 7.76322 31.7647H7.82459C8.97528 31.7805 9.91116 32.764 9.88048 33.9538C9.86514 35.1118 8.95993 36.0636 7.82459 36.0794Z" fill="#003B4D"/>
<path d="M53.6528 44.0582H53.1772V45.4066H52.855V44.0582H52.3794V43.7727H53.6528V44.0582ZM55.8161 45.3907H55.4939V44.09L55.0336 45.3907H54.7268L54.2819 44.09V45.3907H53.9597V43.7568H54.512L54.8802 44.8197L55.2638 43.7568H55.8161V45.3907Z" fill="white"/>
</svg>
