<svg width="56" height="56" viewBox="0 0 56 56" fill="none" xmlns="http://www.w3.org/2000/svg">
<g clip-path="url(#clip0_3581_5933)">
<path d="M34.9396 0.24707H21.9107C18.758 0.24707 16.2021 2.75595 16.2021 5.85081V49.096C16.2021 52.1909 18.758 54.6997 21.9107 54.6997H34.9396C38.0924 54.6997 40.6482 52.1909 40.6482 49.096V5.85081C40.6482 2.75595 38.0924 0.24707 34.9396 0.24707Z" fill="white"/>
<path d="M32.2693 1.7998C31.4709 1.79989 30.8856 1.80292 30.8493 1.80782L30.7615 1.81966L30.953 1.90105C31.2049 2.00804 31.4843 2.17347 31.6331 2.3037C31.699 2.3614 31.8061 2.48732 31.8711 2.58351C31.9616 2.71736 32.0081 2.76479 32.0693 2.7856C32.2638 2.85173 32.4098 3.00516 32.5398 3.28005C32.6395 3.49081 32.6759 3.69501 32.6764 4.04471C32.677 4.52927 32.5649 4.96522 32.2976 5.51764L32.1759 5.76901L32.2636 5.86758C32.4495 6.07656 32.4113 6.26868 32.0793 6.7934C32.0006 6.91787 31.9118 7.0666 31.882 7.12393C31.793 7.29511 31.7094 7.37568 31.5737 7.42101L31.4498 7.46242L31.2891 7.76698C30.8995 8.50528 30.6046 8.89825 30.3544 9.01268C30.3074 9.03415 30.2569 9.06706 30.2422 9.08578C30.1978 9.14208 30.1609 9.29227 30.1618 9.41279C30.1635 9.62548 30.1776 9.63948 30.5932 9.84099C31.0187 10.0473 31.3402 10.2329 31.5454 10.3909C31.6757 10.4911 31.686 10.5059 31.686 10.5898C31.686 10.6642 31.6975 10.6875 31.7494 10.7192C31.9323 10.8309 32.0827 10.9306 32.2295 11.0376C32.3193 11.103 32.5319 11.2481 32.7018 11.36C33.097 11.6201 33.3079 11.7889 33.5532 12.0409C34.3238 12.833 34.748 13.9931 34.8648 15.6281C34.8778 15.8099 34.8885 16.2379 34.8886 16.5792L34.8888 17.1998L34.9682 17.5138C35.0498 17.8367 35.1331 18.2643 35.2578 19.0018C35.3438 19.5098 35.4272 19.9075 35.4913 20.1141C35.5173 20.1981 35.6633 20.5182 35.8158 20.8254C36.1702 21.5393 36.2893 21.8112 36.4299 22.2273C36.5432 22.5627 36.6364 22.9697 36.6727 23.2872C36.7641 24.0877 36.8977 24.7258 36.9961 24.8323C37.011 24.8484 37.1417 24.8922 37.2866 24.9298C37.4315 24.9673 37.6145 25.0279 37.6933 25.0643C37.8284 25.1268 37.8409 25.1394 37.9122 25.2859L37.9878 25.4414L38.2528 25.5737C38.3985 25.6465 38.5472 25.7337 38.5832 25.7675C38.6681 25.8471 38.7315 25.9706 38.751 26.0946C38.7596 26.1491 38.7987 26.2398 38.8379 26.2962C38.9943 26.5213 39.2272 26.9512 39.2493 27.0555C39.2524 27.0704 39.2577 22.3024 39.261 16.4602C39.2676 4.78292 39.2772 5.61084 39.1292 5.04297C39.0066 4.57277 38.7981 4.11636 38.5193 3.70795C37.8382 2.71044 36.8004 2.06022 35.5456 1.84532C35.3396 1.81001 35.0841 1.80536 33.1263 1.80107C32.8253 1.80041 32.5355 1.8001 32.2694 1.80013L32.2693 1.7998ZM31.9375 16.2436C31.8227 16.2436 31.0014 16.731 30.5199 17.0847C30.3347 17.2208 30.3071 17.2511 30.2317 17.4017C30.1153 17.6338 29.675 18.7252 29.2137 19.9249L29.0033 20.4719L28.9948 20.7284C28.9869 20.965 28.9896 20.9849 29.0286 20.9851C29.0938 20.9854 29.2896 21.1059 29.4067 21.2177C29.6381 21.4386 29.7798 21.7173 29.9661 22.3183C30.1133 22.7927 30.4683 24.0205 30.767 25.0878L31.0692 26.1679L31.1642 26.5071L31.0295 26.6352L30.8947 26.7633L30.9484 26.957C30.9779 27.0636 31.0319 27.2585 31.0683 27.3901C31.4979 28.9414 31.6969 30.0701 31.8942 32.0746C31.9883 33.031 32.0592 33.3626 32.2845 33.8991C32.5022 34.4178 32.7377 34.8781 33.0353 35.3669C33.4583 36.0618 33.6983 36.5584 33.8327 37.0169C33.9665 37.4735 34.1381 38.3303 34.3358 39.5284C34.5948 41.0981 34.6859 41.6226 34.7252 41.7705C34.7618 41.9085 34.8004 41.9757 34.9851 42.2235C35.3003 42.6462 35.3742 42.7583 35.5297 43.0501C35.7829 43.5252 35.8467 43.8116 35.7786 44.1671C35.7582 44.2736 35.6997 44.5301 35.6485 44.737C35.4045 45.7237 35.3589 46.195 35.4629 46.6541C35.4757 46.7108 35.5283 47.0099 35.5797 47.3188C35.6833 47.9414 35.7504 48.2029 35.8398 48.3321C35.9184 48.4457 35.995 48.6773 35.9943 48.7994C35.994 48.8531 35.9733 48.9417 35.9483 48.9964C35.9232 49.0511 35.9027 49.1115 35.9027 49.1307C35.9027 49.15 36.0059 49.4745 36.132 49.852C36.2581 50.2294 36.3876 50.6306 36.4197 50.7434C36.6743 51.6387 36.669 52.3646 36.404 52.8862C36.2221 53.2443 35.9978 53.4844 35.5889 53.7587C35.5519 53.7835 35.5625 53.7858 35.6607 53.7742C35.8138 53.756 36.0981 53.6846 36.3463 53.602C36.9877 53.3885 37.6308 52.9709 38.116 52.4531C38.7377 51.7895 39.1425 50.9071 39.2424 49.9978C39.2591 49.8459 39.2666 46.6626 39.2665 39.854L39.2663 29.9316L39.1926 30.0912C39.0982 30.2958 38.8732 30.6701 38.7454 30.8351C38.3782 31.3094 37.8733 31.7136 37.3257 31.9718C36.0367 32.5795 34.5364 32.4517 33.3681 31.6347C33.0886 31.4392 32.6634 31.0185 32.4645 30.7406C31.6521 29.6051 31.5147 28.1339 32.103 26.8702C32.5464 25.9179 33.4327 25.1424 34.4278 24.836C34.5609 24.795 34.679 24.7534 34.6903 24.7436C34.7166 24.7206 34.6616 24.5855 34.357 23.9251C34.1146 23.3986 33.7952 22.7453 33.271 21.7011C32.9839 21.1287 32.9413 21.0054 32.7713 20.2552C32.6088 19.5376 32.3395 18.1683 32.101 16.8472C31.9876 16.2202 31.9939 16.2432 31.9376 16.2432L31.9375 16.2436Z" fill="#C8102E"/>
<path d="M25.5317 1.79203C23.6622 1.79308 21.7586 1.80115 21.6018 1.81522C20.5578 1.90881 19.6622 2.30899 18.9249 3.01133C18.2126 3.68993 17.7994 4.47021 17.6149 5.48505C17.5782 5.68734 17.5752 7.08449 17.5679 27.4941C17.5626 42.2991 17.5678 49.421 17.5839 49.7073C17.6489 50.8582 18.0574 51.7725 18.8625 52.5693C19.6223 53.3211 20.5781 53.7563 21.636 53.832C21.9497 53.8544 34.8662 53.8607 34.8653 53.8384C34.8649 53.8292 34.8018 53.7807 34.725 53.7306C34.4341 53.5407 34.2019 53.2263 34.1168 52.9071C34.0135 52.5195 34.0193 52.0801 34.1409 51.0863C34.2473 50.2169 34.3124 49.5261 34.3278 49.1021L34.3431 48.6838L34.2186 48.5504C33.9544 48.2673 33.9011 48.0577 34.0217 47.776C34.0551 47.698 34.0825 47.6096 34.0825 47.5795C34.0825 47.4965 33.9595 47.1048 33.8451 46.8236C33.7118 46.4959 33.5127 46.1049 33.2044 45.5657C32.7623 44.7924 32.6724 44.5841 32.6699 44.3276C32.6684 44.166 32.7001 44.0846 32.8152 43.9549L32.8836 43.8779L32.8175 43.6867C32.7302 43.4336 32.64 43.2129 32.4574 42.8056L32.3064 42.4688L32.0971 42.346C31.2524 41.849 30.2264 41.0808 29.2219 40.1895C28.924 39.9251 28.3936 39.4191 27.9535 38.9814C27.6811 38.7097 27.2611 38.3158 27.0203 38.1063C26.591 37.7326 26.4293 37.5682 26.3568 37.4316C26.3368 37.394 26.261 37.2965 26.1882 37.215C25.2522 36.1664 23.1477 33.0957 22.4448 31.7534C22.3667 31.6042 22.3006 31.4796 22.2979 31.4765C22.2952 31.4735 22.0463 31.4358 21.7448 31.3928C21.4432 31.3498 21.1889 31.3062 21.1796 31.2958C21.1703 31.2855 21.1247 31.1503 21.0782 30.9955C20.8955 30.387 20.6619 29.8757 19.9936 28.6214C19.0403 26.8321 18.7926 25.9298 18.9327 24.7575C19.0226 24.0058 19.2753 22.8233 19.4033 22.5557C19.4805 22.3944 19.6591 22.177 19.933 21.9106L20.1883 21.6617V21.3847V21.1076L19.5719 21.107C18.7554 21.1063 18.5215 21.0718 18.35 20.9266C18.2467 20.8391 18.2276 20.7915 18.1366 20.3958C18.1097 20.2788 18.0512 20.0942 18.0066 19.9855C17.8268 19.5471 17.8155 19.3769 17.9403 18.9868C17.9839 18.8506 18.0365 18.6734 18.0571 18.593C18.2422 17.8728 18.7093 16.7803 19.6125 14.9553C19.7677 14.6418 19.9287 14.2879 19.9703 14.1688C20.2464 13.3801 20.5078 12.7548 20.7803 12.2313C21.3831 11.0731 21.8458 10.3821 22.3226 9.92806C22.5673 9.69499 22.7491 9.56927 23.031 9.43824C23.4128 9.26082 23.6964 9.20418 24.6234 9.1201L25.2451 9.06369L25.3146 8.98569L25.3841 8.90768L25.6836 8.89352C26.6759 8.84655 27.0334 8.72298 27.203 8.3684C27.2871 8.19256 27.3237 8.00339 27.4123 7.28854C27.4568 6.92922 27.4956 6.61984 27.4985 6.60104C27.5018 6.57992 27.4886 6.56938 27.4641 6.57344C27.2531 6.6083 27.0755 6.1438 27.0692 5.54108C27.0641 5.05236 27.1364 4.94174 27.4775 4.91661L27.6651 4.90248L27.6702 4.73151C27.6813 4.35917 27.7282 3.81789 27.7707 3.57014C27.8686 3.00081 27.9988 2.72176 28.3085 2.41782C28.5341 2.19642 28.7617 2.04916 29.0967 1.90787C29.2133 1.85868 29.2773 1.82042 29.2604 1.81006C29.2376 1.79604 27.4012 1.79007 25.5313 1.79114L25.5317 1.79203ZM20.3266 43.257H21.0615H21.7964L21.8328 43.4565C21.8527 43.5662 21.9218 43.9432 21.9862 44.2942C22.0506 44.6453 22.1441 45.1581 22.1941 45.434C22.2441 45.7098 22.3783 46.4432 22.4923 47.0638C22.6063 47.6844 22.7532 48.4871 22.8188 48.8475C22.8843 49.208 22.9418 49.499 22.9466 49.4942C22.9539 49.487 22.9195 48.8882 22.8731 48.215C22.8561 47.9681 22.8409 47.7151 22.8262 47.4285C22.8188 47.2844 22.8085 47.1048 22.8035 47.0296C22.7984 46.9544 22.7879 46.7031 22.7802 46.4711C22.7725 46.2392 22.7617 45.9981 22.7563 45.9355C22.7509 45.8728 22.7401 45.2445 22.7322 44.5393L22.718 43.2571H23.1927H23.6675V47.1891V51.1212H22.9931H22.3187L22.2072 50.5228C22.1458 50.1937 22.0195 49.5193 21.9265 49.024C21.8335 48.5288 21.689 47.7543 21.6052 47.303C21.3871 46.1267 21.2762 45.5411 21.2126 45.2286L21.157 44.9551L21.1679 45.1717C21.1738 45.2908 21.1892 45.6908 21.2018 46.0607C21.2145 46.4305 21.23 46.8562 21.2362 47.0067C21.2443 47.2024 21.2547 50.5955 21.2486 51.0813C21.2482 51.118 21.2107 51.1212 20.7873 51.1212H20.3265V47.1892L20.3266 43.257ZM24.4049 43.257L25.2517 43.2572C25.7174 43.2572 26.1659 43.2677 26.2482 43.2803C26.7462 43.3564 27.0998 43.6318 27.2599 44.0682C27.3701 44.3684 27.3816 44.5201 27.3717 45.5365C27.3641 46.3219 27.3568 46.4801 27.3232 46.5965C27.2573 46.8243 27.1702 46.976 27.0216 47.121L26.8812 47.258L27.0095 47.3831C27.1593 47.5292 27.2431 47.6694 27.3144 47.8938C27.3641 48.0502 27.3657 48.086 27.3657 49.0128C27.3657 50.0835 27.3636 50.1016 27.1974 50.4374C27.0434 50.7486 26.7754 50.9594 26.3963 51.0675C26.2805 51.1005 26.1189 51.1079 25.3323 51.1157L24.4049 51.1271V47.1927V43.2583V43.257ZM28.6696 43.257H29.4269H30.1842L30.1977 43.3425C30.2051 43.3895 30.2685 43.9204 30.3387 44.5222C30.4089 45.1239 30.5539 46.36 30.6609 47.2689C31.072 50.7611 31.11 51.0847 31.11 51.103C31.11 51.1121 30.8616 51.1212 30.5579 51.1212H30.0059L29.994 51.0471C29.9875 51.0064 29.9612 50.7063 29.9355 50.3804C29.9098 50.0544 29.8825 49.7287 29.8749 49.6566L29.8611 49.5256H29.3914C28.9229 49.5256 28.9217 49.5258 28.9111 49.5769C28.9052 49.6051 28.8785 49.9051 28.8517 50.2436C28.8249 50.5821 28.7969 50.9181 28.7895 50.9901L28.7761 51.1212H28.2494H27.7228V51.053C27.7228 50.9968 27.8803 49.675 28.0339 48.4427C28.0527 48.2922 28.1873 47.1844 28.3331 45.9808C28.6348 43.49 28.642 43.4316 28.6579 43.3309L28.6695 43.2569L28.6696 43.257ZM29.3614 44.1397C29.3579 44.1397 29.3543 44.1433 29.3504 44.1476C29.3454 44.153 29.3348 44.2498 29.3269 44.3626C29.319 44.4754 29.3071 44.6344 29.3005 44.7159C29.2939 44.7974 29.2575 45.2744 29.2196 45.7759C29.1817 46.2774 29.1135 47.1111 29.0681 47.6285C29.0227 48.1459 28.9905 48.5819 28.9965 48.5973C29.0045 48.6179 29.1083 48.6253 29.3885 48.6253C29.5981 48.6253 29.7757 48.6193 29.7831 48.612C29.7905 48.6047 29.7657 48.2559 29.7281 47.8369C29.4258 44.4751 29.3954 44.1395 29.3614 44.1397ZM25.4648 44.256V45.5418C25.4648 46.2491 25.4691 46.832 25.4744 46.8372C25.4797 46.8425 25.6119 46.8432 25.7682 46.8389C26.0951 46.8298 26.1754 46.8033 26.2536 46.679L26.3057 46.5969V45.5598C26.3057 44.5636 26.3038 44.5196 26.2596 44.4452C26.1678 44.291 26.1186 44.2727 25.7742 44.2644L25.4647 44.2552L25.4648 44.256ZM25.4648 47.696V48.9069V50.1178H25.7364C26.0651 50.1178 26.1797 50.0752 26.2584 49.924C26.304 49.8364 26.3058 49.7969 26.3058 48.8983C26.3058 48.0008 26.304 47.9605 26.2591 47.8839C26.1832 47.7543 26.0743 47.7164 25.747 47.7054L25.4648 47.6986L25.4648 47.696Z" fill="#1D428A"/>
</g>
<defs>
<clipPath id="clip0_3581_5933">
<rect width="25" height="55" fill="white" transform="translate(16)"/>
</clipPath>
</defs>
</svg>
