<svg width="56" height="56" viewBox="0 0 56 56" fill="none" xmlns="http://www.w3.org/2000/svg">
<path d="M7 42.2838L7.10739 5.2011C14.4099 11.5529 25.5477 5.13973 28.2478 0C33.4946 9.34356 46.5347 8.94466 49.2808 5.10904L49.3882 43.4192C49.3422 51.8422 33.2031 47.8225 28.2018 56C23.1084 47.1014 7.32217 52.1644 7 42.2838Z" fill="#003B4D"/>
<path d="M8.85645 41.3485L8.94849 22.7688L47.4247 22.7534L47.5167 42.3304C47.5474 50.0323 32.7583 46.1967 28.1866 53.3923C23.5535 45.5677 8.93315 50.2625 8.85645 41.3485Z" fill="white"/>
<path d="M23.216 20.6517C23.7069 18.2276 24.4126 16.0643 25.2871 14.1465L24.474 13.7169L24.7655 13.1799C26.7752 13.6556 26.6218 13.9317 27.2201 14.2846L26.8366 14.9597L25.8701 14.5301C24.5967 16.5399 24.1979 18.6572 23.799 20.7898C29.0457 20.5136 36.2869 16.3865 32.8504 7.25774C32.068 7.61062 31.3316 8.04021 30.6873 8.65391L31.3623 9.28295L30.8867 9.71254C30.3958 9.1909 29.8588 8.71528 28.8616 8.69994L29.4906 8.27035L30.3037 8.3624C30.7026 7.88679 31.3776 7.39583 32.4208 6.92021C24.7041 6.87418 21.1296 12.3514 23.216 20.6517Z" fill="white"/>
<path d="M13.3823 14.5142L11.6334 13.2715L9.89979 14.5295L10.5288 12.489L8.81055 11.2156L10.943 11.2002L11.618 9.15967L12.293 11.1849L14.4408 11.2002L12.7226 12.4736L13.3823 14.5142Z" fill="white"/>
<path d="M20.7609 14.5142L19.012 13.2715L17.2631 14.5295L17.9074 12.489L16.1738 11.2156L18.3216 11.2002L18.9813 9.15967L19.6717 11.1849L21.8195 11.2002L20.1012 12.4736L20.7609 14.5142Z" fill="white"/>
<path d="M13.3823 21.0342L11.6334 19.7915L9.89979 21.0496L10.5288 18.9937L8.81055 17.7356L10.943 17.7049L11.618 15.6797L12.293 17.7049H14.4408L12.7226 18.9937L13.3823 21.0342Z" fill="white"/>
<path d="M20.7609 21.0342L19.012 19.7915L17.2631 21.0496L17.9074 18.9937L16.1738 17.7356L18.3216 17.7049L18.9813 15.6797L19.6717 17.7049H21.8195L20.1012 18.9937L20.7609 21.0342Z" fill="white"/>
<path d="M39.1865 14.5142L37.4376 13.2715L35.704 14.5295L36.3483 12.489L34.6147 11.2156L36.7625 11.2002L37.4222 9.15967L38.1126 11.1849L40.245 11.2002L38.5268 12.4736L39.1865 14.5142Z" fill="white"/>
<path d="M46.5654 14.5142L44.8165 13.2715L43.0829 14.5295L43.7119 12.489L41.9937 11.2156L44.1261 11.2002L44.8011 9.15967L45.4915 11.1849L47.6239 11.2002L45.9057 12.4736L46.5654 14.5142Z" fill="white"/>
<path d="M39.1865 21.0342L37.4376 19.7915L35.704 21.0496L36.3483 18.9937L34.6147 17.7356L36.7625 17.7049L37.4222 15.6797L38.1126 17.7049H40.245L38.5268 18.9937L39.1865 21.0342Z" fill="white"/>
<path d="M46.5654 21.0342L44.8165 19.7915L43.0829 21.0496L43.7119 18.9937L41.9937 17.7356L44.1261 17.7049L44.8011 15.6797L45.4915 17.7049H47.6239L45.9057 18.9937L46.5654 21.0342Z" fill="white"/>
<path d="M25.333 12.2744C26.5143 12.6426 27.0973 13.1336 27.6496 13.6246L28.1251 12.9495C27.5422 12.2898 26.591 11.9829 25.6245 11.6914L25.333 12.2744Z" fill="#003B4D"/>
<path d="M26.2983 11.0772C27.4796 11.4454 28.0626 11.9363 28.6149 12.4273L29.0905 11.7522C28.5075 11.0925 27.5563 10.7856 26.5898 10.4941L26.2983 11.0772Z" fill="#003B4D"/>
<path d="M27.604 9.68165C28.7853 10.0499 29.3683 10.5408 29.9205 11.0318L30.3961 10.3567C29.8132 9.69699 28.862 9.39014 27.8955 9.09863L27.604 9.68165Z" fill="#003B4D"/>
<path d="M11.187 24.5633L11.233 27.2483L12.6751 27.8773L12.7672 40.8724L11.187 41.5014V43.5266L16.9093 44.9688L16.8633 42.514L15.7587 41.3633L15.7127 34.4746L19.5634 45.5518L22.4936 46.457L22.647 27.8773L23.5982 27.1102V24.5633H18.1673V27.1102L19.41 27.8313L19.4714 36.3463L15.6053 24.502L11.187 24.5633Z" fill="#EE3536"/>
<path d="M24.7184 44.9232L24.7644 46.9944L30.3486 49.0656V46.6569L29.1367 45.3528V36.0706L30.9163 36.1166L31.7907 37.2212L33.2328 37.1752L33.2788 32.0662L31.6527 32.0201L30.9776 33.1248L29.1827 33.1708V27.6322L31.4072 27.7396L32.2203 29.6114L34.3834 29.5654L34.4448 24.6558H24.5649L24.611 27.1566L25.869 27.9697L26.007 44.2941L24.7184 44.9232Z" fill="#EE3536"/>
<path d="M35.3965 24.609V27.2019L36.409 27.7849L36.5624 42.5597L35.3965 43.9098L35.5039 46.1345L45.1689 43.3882L45.0769 37.2665L42.7143 37.2205L42.3768 40.872L40.0296 41.6545L40.0756 27.923L41.2722 26.9564L41.2262 24.563L35.3965 24.609Z" fill="#EE3536"/>
</svg>
