<svg width="56" height="56" viewBox="0 0 56 56" fill="none" xmlns="http://www.w3.org/2000/svg">
<path d="M48.6701 44.0005L46.9559 42.0005C46.3983 47.8402 43.0731 52.5422 37.813 56.0005L37.0089 52.8506C32.5437 56.0718 24.3957 57.1473 17.813 53.429C18.631 49.2644 19.2441 45.7147 18.9559 41.1433C15.3109 46.7805 12.0988 48.8576 12.0988 48.8576C9.63573 44.7275 9.36388 36.4394 10.0989 34.0005L6 35.2683C6 32.4841 7.76239 26.1755 10.6701 22.8576L8.09869 22.5719C9.83824 19.0216 12.9657 15.0616 16.1429 12.763C16.1429 12.763 16.5402 12.0562 17.5272 11.4291C18.4826 10.8221 19.1968 10.8548 19.2418 10.8575C22.5273 9.16872 26.4377 8.00049 30.3844 8.00049C31.1217 8.00049 31.8567 8.03271 32.5755 8.09714L35.5892 8.5619C39.8632 9.6019 41.2439 11.7984 42.0987 12.636H37.6174L43.3429 16.8577C44.117 17.5066 44.9559 20.572 44.9216 20.8977C44.9216 20.8977 45.5523 22.3112 46.3844 23.1433C47.6722 24.4311 49.4932 27.8341 50.0987 31.1433C50.8368 35.1764 50.3844 39.7147 48.6701 44.0005Z" fill="white"/>
<path d="M30.2412 8.78809C30.9588 8.78809 31.6744 8.81969 32.374 8.88281C33.4907 9.33359 35.1299 10.9154 35.8945 11.9004C35.895 11.8888 35.9447 10.7328 35.3066 9.33789C39.4661 10.3567 41.4513 12.0585 42.2832 12.8789C42.4537 14.6864 42.9913 15.7708 43.7021 17.4883C42.3545 15.9713 38.9683 13.5235 37.3516 12.9375C37.3495 12.961 37.2149 14.5098 36.6631 15.2568C33.4686 12.9403 31.888 12.3423 31.8633 12.333C28.3294 12.8424 26.0549 14.2127 24.8193 15.29L25.8965 16.2119C23.7663 16.87 22.3828 18.71 22.3828 18.71C22.414 18.7456 24.2828 19.0132 24.2861 19.0137C24.2861 19.0137 24.0932 21.2432 26.8691 22.6406C29.2483 23.8375 32.6678 22.3521 35.8877 23.6504C33.771 21.1936 32.3066 20.0957 32.3066 20.0957C32.2939 20.093 31.4615 19.9203 30.874 19.9248C30.1341 19.9293 29.0308 20.0757 27.8223 19.6025C27.2439 19.3749 26.5692 18.9732 26.04 18.6396C26.0624 18.6167 27.5429 17.1021 29.6992 16.7666C29.7169 16.7716 31.6663 17.3268 33.2109 18.4756C34.2424 17.4659 35.3184 17.4971 35.3184 17.4971C35.3184 17.4971 34.2516 18.4975 34.5742 19.71C36.1218 21.0967 37.8007 23.0823 37.8047 23.0869C39.5178 22.1447 43.2422 22.3614 44.0068 23.2539C43.0382 21.9895 41.6413 20.9338 40.5605 20.0322C40.4276 19.5584 39.2496 17.9094 39.0498 17.7559C39.0702 17.7622 40.1799 18.1114 41.1729 19.0068C41.4599 18.5944 41.9984 18.175 42.7314 17.9902C43.4848 18.6259 43.6189 19.6024 43.5986 19.7646C43.2611 20.1713 42.9257 20.3379 42.9238 20.3389L44.7402 22.3154L44.9219 20.8984C49.1059 26.905 51.3857 33.8556 48.4531 42.5938L46.5527 40.4785C46.0101 46.199 43.2226 51.0557 38.1035 54.4434L37.3213 51.3584C32.9758 54.5139 25.5176 56.5603 19.1113 52.918C19.9073 48.8383 20.6135 44.7045 19.0977 39.7549C15.5504 45.2769 12.4111 47.4404 12.4111 47.4404C10.0144 43.3946 10.2301 35.2789 10.9453 32.8896L6.95605 34.1318C6.95605 31.4045 8.90947 25.6183 11.7393 22.3682L9.24805 21.9668H9.24512C10.9381 18.4889 13.4656 15.4909 16.5576 13.2393L16.5615 13.2373C15.6334 14.7114 15.6202 18.3485 18.3398 19.7324C17.1854 17.6975 17.0461 15.1828 18.252 13.8799C19.4583 12.5659 21.4882 13.0164 22.7842 14.0352C22.3985 12.8992 21.2681 11.47 19.5752 11.373H19.5732C22.7705 9.71884 26.4005 8.78816 30.2412 8.78809ZM39.9893 32.8691C39.9735 32.8827 36.8746 35.5561 34.9824 35.6191C34.994 35.6409 36.0304 37.5784 36.5566 38.5938C37.5994 38.3637 39.4359 37.5373 40.1758 36.6719C40.1846 36.7008 40.6634 38.2735 40.5723 40.127C41.6104 39.5229 43.0413 37.882 43.5459 35.2969C43.5459 35.2969 43.3082 34.0116 42.2969 32.8125L39.9893 32.8691ZM37.7178 24.9756C34.7625 25.4242 31.1836 28.4131 31.1836 28.4131C31.1836 28.4131 32.3929 30.7187 33.7158 33.207C36.041 33.5337 39.4667 30.5816 40.5723 29.6709L40.5684 26.5674C40.5684 26.5674 39.1887 26.1228 37.7178 24.9756ZM44.4922 25.0996C43.3417 26.0711 42.364 26.6175 42.3418 26.6299L42.3545 29.7451C43.1864 30.6782 44.0078 31.4516 44.6221 32.8604C45.7881 30.7506 45.564 27.6488 44.4922 25.0996ZM34.377 0C34.5182 2.10741 34.7104 5.12118 34.7598 5.57422C34.9234 5.35107 36.1773 3.58338 38.2783 1.95605C37.368 3.75917 36.9331 6.2479 36.7402 8.24707C34.673 7.66787 32.4908 7.35646 30.2441 7.35645C25.9279 7.35645 21.8737 8.49733 18.3691 10.501C17.7324 8.56938 16.7342 6.16681 15.4111 4.58008C17.8238 5.69124 19.3737 7.0935 19.6562 7.30762C19.5284 6.68107 19.0529 3.66501 18.7793 1.79199C20.1853 2.7725 23.4474 5.0488 24.5215 5.78809C24.9587 4.43347 26.4746 0.00878906 26.4746 0.00878906C26.4746 0.00878906 29.2147 4.46651 29.6836 5.19043C30.2562 4.58776 33.5295 0.926167 34.377 0Z" fill="#38003D"/>
<path d="M30.2412 8.78809C30.9588 8.78809 31.6744 8.81969 32.374 8.88281C33.4907 9.33359 35.1299 10.9154 35.8945 11.9004C35.895 11.8888 35.9447 10.7328 35.3066 9.33789C39.4661 10.3567 41.4513 12.0585 42.2832 12.8789C42.4537 14.6864 42.9913 15.7708 43.7021 17.4883C42.3545 15.9713 38.9683 13.5235 37.3516 12.9375C37.3495 12.961 37.2149 14.5098 36.6631 15.2568C33.4686 12.9403 31.888 12.3423 31.8633 12.333C28.3294 12.8424 26.0549 14.2127 24.8193 15.29L25.8965 16.2119C23.7663 16.87 22.3828 18.71 22.3828 18.71C22.414 18.7456 24.2828 19.0132 24.2861 19.0137C24.2861 19.0137 24.0932 21.2432 26.8691 22.6406C29.2483 23.8375 32.6678 22.3521 35.8877 23.6504C33.771 21.1936 32.3066 20.0957 32.3066 20.0957C32.2939 20.093 31.4615 19.9203 30.874 19.9248C30.1341 19.9293 29.0308 20.0757 27.8223 19.6025C27.2439 19.3749 26.5692 18.9732 26.04 18.6396C26.0624 18.6167 27.5429 17.1021 29.6992 16.7666C29.7169 16.7716 31.6663 17.3268 33.2109 18.4756C34.2424 17.4659 35.3184 17.4971 35.3184 17.4971C35.3184 17.4971 34.2516 18.4975 34.5742 19.71C36.1218 21.0967 37.8007 23.0823 37.8047 23.0869C39.5178 22.1447 43.2422 22.3614 44.0068 23.2539C43.0382 21.9895 41.6413 20.9338 40.5605 20.0322C40.4276 19.5584 39.2496 17.9094 39.0498 17.7559C39.0702 17.7622 40.1799 18.1114 41.1729 19.0068C41.4599 18.5944 41.9984 18.175 42.7314 17.9902C43.4848 18.6259 43.6189 19.6024 43.5986 19.7646C43.2611 20.1713 42.9257 20.3379 42.9238 20.3389L44.7402 22.3154L44.9219 20.8984C49.1059 26.905 51.3857 33.8556 48.4531 42.5938L46.5527 40.4785C46.0101 46.199 43.2226 51.0557 38.1035 54.4434L37.3213 51.3584C32.9758 54.5139 25.5176 56.5603 19.1113 52.918C19.9073 48.8383 20.6135 44.7045 19.0977 39.7549C15.5504 45.2769 12.4111 47.4404 12.4111 47.4404C10.0144 43.3946 10.2301 35.2789 10.9453 32.8896L6.95605 34.1318C6.95605 31.4045 8.90947 25.6183 11.7393 22.3682L9.24805 21.9668H9.24512C10.9381 18.4889 13.4656 15.4909 16.5576 13.2393L16.5615 13.2373C15.6334 14.7114 15.6202 18.3485 18.3398 19.7324C17.1854 17.6975 17.0461 15.1828 18.252 13.8799C19.4583 12.5659 21.4882 13.0164 22.7842 14.0352C22.3985 12.8992 21.2681 11.47 19.5752 11.373H19.5732C22.7705 9.71884 26.4005 8.78816 30.2412 8.78809ZM39.9893 32.8691C39.9735 32.8827 36.8746 35.5561 34.9824 35.6191C34.994 35.6409 36.0304 37.5784 36.5566 38.5938C37.5994 38.3637 39.4359 37.5373 40.1758 36.6719C40.1846 36.7008 40.6634 38.2735 40.5723 40.127C41.6104 39.5229 43.0413 37.882 43.5459 35.2969C43.5459 35.2969 43.3082 34.0116 42.2969 32.8125L39.9893 32.8691ZM37.7178 24.9756C34.7625 25.4242 31.1836 28.4131 31.1836 28.4131C31.1836 28.4131 32.3929 30.7187 33.7158 33.207C36.041 33.5337 39.4667 30.5816 40.5723 29.6709L40.5684 26.5674C40.5684 26.5674 39.1887 26.1228 37.7178 24.9756ZM44.4922 25.0996C43.3417 26.0711 42.364 26.6175 42.3418 26.6299L42.3545 29.7451C43.1864 30.6782 44.0078 31.4516 44.6221 32.8604C45.7881 30.7506 45.564 27.6488 44.4922 25.0996ZM34.377 0C34.5182 2.10741 34.7104 5.12118 34.7598 5.57422C34.9234 5.35107 36.1773 3.58338 38.2783 1.95605C37.368 3.75917 36.9331 6.2479 36.7402 8.24707C34.673 7.66787 32.4908 7.35646 30.2441 7.35645C25.9279 7.35645 21.8737 8.49733 18.3691 10.501C17.7324 8.56938 16.7342 6.16681 15.4111 4.58008C17.8238 5.69124 19.3737 7.0935 19.6562 7.30762C19.5284 6.68107 19.0529 3.66501 18.7793 1.79199C20.1853 2.7725 23.4474 5.0488 24.5215 5.78809C24.9587 4.43347 26.4746 0.00878906 26.4746 0.00878906C26.4746 0.00878906 29.2147 4.46651 29.6836 5.19043C30.2562 4.58776 33.5295 0.926167 34.377 0Z" stroke="white"/>
</svg>
