<svg width="56" height="56" viewBox="0 0 56 56" fill="none" xmlns="http://www.w3.org/2000/svg">
<path fill-rule="evenodd" clip-rule="evenodd" d="M23.8994 4.38866C22.3661 4.70179 20.735 5.38861 20.735 5.38861C21.5426 4.28857 23.182 2.94092 23.182 2.94092C22.7309 2.09341 22.3315 0.838617 22.3315 0.838617C22.3315 0.838617 24.2274 0.942662 25.7113 1.42436C25.7113 1.42436 28.2325 0.0424741 30.8448 0C30.8448 0 28.9407 1.09939 28.1317 2.12305C28.3464 2.23598 29.8692 2.69167 31.0552 3.39069C31.0552 3.39069 28.9111 3.45127 26.9434 3.7206C26.9434 3.7206 26.2507 4.69783 25.6649 6.92196C25.6646 6.92196 24.6557 5.81072 23.8994 4.38866Z" fill="black"/>
<path fill-rule="evenodd" clip-rule="evenodd" d="M34.0857 6.23021C32.7874 4.78609 31.0552 3.39069 31.0552 3.39069C32.6488 3.4134 35.0135 4.35378 35.0135 4.35378C35.4758 3.47993 35.7995 2.27748 35.7995 2.27748C35.7995 2.27748 36.7043 3.80886 37.1152 5.50222C37.1152 5.50222 38.9936 6.62697 40.411 8.50933C40.411 8.50933 38.932 8.20081 37.8432 8.20608C37.8399 8.44907 38.2425 10.447 38.155 11.8207C38.155 11.8207 36.9492 9.86126 35.8179 8.22913C35.8179 8.22913 33.9994 8.26206 32.0888 8.78426C32.0891 8.78426 33.1592 7.54823 34.0857 6.23021ZM36.1663 15.6433C37.1237 14.029 38.1553 11.821 38.1553 11.821C38.4717 13.2977 38.5 15.1817 38.5 15.1817C39.4499 14.9815 41.1314 14.1748 41.1314 14.1748C41.1314 14.1748 40.3824 16.1701 38.7032 17.7002C38.7032 17.7002 38.8731 18.8957 38.8928 20.4732C38.8928 20.4732 37.7052 19.9441 36.7204 19.3524C36.5107 19.4746 35.3204 20.2842 33.3096 20.7004C33.3096 20.7004 34.1611 19.3702 34.8654 18.0709C34.8654 18.0709 33.4634 17.1474 32.3528 15.6338C32.3528 15.6335 34.5121 15.9061 36.1663 15.6433Z" fill="black"/>
<path fill-rule="evenodd" clip-rule="evenodd" d="M29.3931 12.3491C30.8619 14.1686 32.3525 15.6338 32.3525 15.6338C29.9173 15.2719 27.9401 14.5891 27.9401 14.5891C26.951 16.1748 25.8717 18.0183 25.8717 18.0183C25.8717 18.0183 25.2682 16.0184 25.1661 13.7485C25.1661 13.7485 23.9429 13.3204 21.6885 12.4328C21.6885 12.4328 23.2436 11.4674 25.1256 10.9409C25.0156 10.7239 25.3041 8.02534 25.6649 6.92233C25.6649 6.92233 26.7623 8.70131 27.6559 10.0091C27.6559 10.0091 29.405 9.41579 32.0894 8.78428C32.0891 8.78428 30.6202 10.6482 29.3931 12.3491ZM16.0223 19.2313C15.8744 18.953 15.7366 18.6696 15.6091 18.3814C15.6348 17.4164 15.721 16.1735 15.968 15.2094C15.968 15.2094 15.2604 14.7185 14.5288 14.0804C14.5206 13.9694 14.511 13.8575 14.5048 13.7452C14.9249 13.5885 15.8169 13.2734 16.5959 13.0929C16.6851 12.8661 17.1701 11.3031 18.1075 10.2248C18.1075 10.2248 18.1707 11.2873 18.4256 12.7018C18.4256 12.7018 19.9052 12.3666 21.6882 12.4321C21.6882 12.4321 20.036 13.7333 18.9955 15.0553C19.3728 16.5794 20.1321 18.0423 20.1321 18.0423C18.9975 17.4003 17.7973 16.5498 17.7973 16.5498C17.3759 17.0509 16.5287 18.4029 16.0223 19.2313ZM25.4611 26.1519C25.2775 26.1188 25.0947 26.0812 24.9129 26.039C24.2936 25.3749 23.3489 24.2906 22.6275 23.1511C22.6275 23.1511 19.9665 22.9364 18.0914 22.1152C18.0914 22.1152 19.6422 21.8238 21.3451 20.9457C21.2351 20.7287 20.5858 19.5315 20.1318 18.043C20.1318 18.043 21.7583 19.357 22.9634 20.1262C22.9634 20.1262 24.4948 19.2451 25.8714 18.0183C25.8714 18.0183 25.5224 19.7139 25.3291 21.6506C26.2185 22.1586 27.1153 22.6535 28.0191 23.1353C26.6306 23.3374 25.2639 23.2949 25.2639 23.2949C25.2099 24.3703 25.3544 25.5006 25.4611 26.1519ZM37.0381 22.6941C37.0381 22.6941 35.2028 23.179 33.4117 23.2462C33.4117 23.2462 33.3982 22.0243 33.3093 20.7004C33.3093 20.7004 32.3581 22.0504 31.1164 23.3486C29.6503 23.3275 28.0191 23.1356 28.0191 23.1356C28.5785 23.7049 29.1539 24.2581 29.7448 24.7947C28.6404 25.7334 27.6197 26.3607 27.6197 26.3607C27.7646 26.3626 27.9121 26.3636 28.058 26.3616C31.5438 26.3047 34.6941 24.9172 37.0381 22.6941Z" fill="black"/>
<path fill-rule="evenodd" clip-rule="evenodd" d="M14.6661 10.793C14.6661 10.793 15.6466 9.57018 16.7911 8.57714C16.7911 8.57714 17.1737 9.28343 18.1075 10.2248C18.1075 10.2248 18.1144 9.07465 18.2481 7.26966C19.2938 6.34511 20.735 5.38861 20.735 5.38861C19.5398 5.31256 18.6478 5.37084 18.6478 5.37084C18.925 4.00113 19.5513 2.53133 19.5513 2.53133C17.0101 4.54638 15.2215 7.46721 14.6661 10.793ZM40.33 46.2082C38.6169 46.2082 37.5764 44.773 37.5764 43.1992C37.5764 41.5637 38.7894 40.3787 40.3725 40.3787C42.1268 40.3787 43.184 41.7715 43.184 43.3022C43.184 45.1158 41.869 46.2082 40.33 46.2082ZM40.2342 41.2032C39.1681 41.2032 38.8497 42.218 38.8497 42.9055C38.8497 43.9107 39.2971 45.3815 40.5269 45.3815C41.404 45.3815 41.9114 44.6008 41.9114 43.6631C41.9114 42.6661 41.5249 41.2032 40.2342 41.2032ZM29.8471 45.3917C29.8471 45.7009 29.9064 45.8121 30.4059 45.9086V46.1226C29.8639 46.0969 29.5274 46.0713 29.2104 46.0713C28.8913 46.0713 28.5564 46.0969 28.1781 46.1226V45.9066C28.5127 45.8474 28.5739 45.7008 28.5739 45.2962V41.0916C28.5739 40.8499 28.4705 40.7373 28.1781 40.7287V40.4894H30.723C32.3146 40.4894 32.8914 41.2463 32.8914 42.245C32.8914 43.3118 32.0825 43.966 30.9732 43.966C30.5521 43.966 29.9334 43.75 29.9334 43.5692C29.9334 43.4922 29.9848 43.4922 30.0621 43.4922C30.1395 43.4922 30.2505 43.5179 30.3624 43.5179C31.2652 43.5179 31.6189 43.0105 31.6189 42.2967C31.6189 41.5216 31.1365 41.2467 30.3789 41.2467L29.8471 41.304V45.3917ZM34.5539 41.0386C34.5539 40.7985 34.4511 40.6856 34.1584 40.6777V40.4538C34.5364 40.4795 34.8709 40.5052 35.19 40.5052C35.509 40.5052 35.8439 40.4795 36.2215 40.4538V40.6777C35.9302 40.6853 35.8261 40.7985 35.8261 41.0386V45.5458C35.8261 45.7874 35.9302 45.8987 36.2215 45.9086V46.1226C35.8442 46.0969 35.5084 46.0713 35.19 46.0713C34.8709 46.0713 34.5367 46.0969 34.1584 46.1226V45.9086C34.4511 45.8991 34.5539 45.7878 34.5539 45.5458V41.0386ZM44.9087 41.0346C44.9087 40.7946 44.8046 40.6817 44.5119 40.6738V40.4479C44.8905 40.4729 45.2264 40.5012 45.5448 40.5012C45.7769 40.5012 46.0347 40.5012 46.3024 40.4479L48.676 44.2956H48.6928V41.1555C48.6928 40.7073 48.4093 40.6738 48.1772 40.6738V40.4479C48.4607 40.4729 48.7353 40.5012 49.003 40.5012C49.2865 40.5012 49.5703 40.4729 49.8465 40.4479V40.6738C49.5532 40.6813 49.4498 40.7946 49.4498 41.0346V46.1226H48.5377L45.6824 41.681H45.6656V45.421C45.6656 45.8691 45.9478 45.9027 46.1812 45.9027V46.1187C45.8977 46.093 45.6218 46.0653 45.3555 46.0653C45.072 46.0653 44.7875 46.093 44.5119 46.1187V45.9027C44.8046 45.8951 44.9087 45.7818 44.9087 45.5418V41.0346ZM51.6044 44.1665C51.7806 45.1319 52.4141 45.584 53.3627 45.584C53.8835 45.584 54.6372 45.4335 54.6372 44.7691C54.6372 44.238 54.088 44.097 53.681 43.9722L53.0515 43.7859C52.1487 43.5202 51.2459 43.1396 51.2459 42.0952C51.2459 40.7235 52.5738 40.3073 53.8928 40.3073C54.4522 40.3073 55.0264 40.4044 55.5404 40.5908C55.5404 41.2289 55.5756 41.7675 55.6105 42.2282H55.3892C55.2035 41.4133 54.5404 41.0326 53.7436 41.0326C53.2991 41.0326 52.557 41.1755 52.557 41.7857C52.557 42.2736 52.9807 42.4139 53.3442 42.5196L54.2734 42.7869C55.1673 43.0421 56 43.3714 56 44.5215C56 45.6887 54.8226 46.3093 53.3794 46.3093C52.7331 46.3093 52.0516 46.2046 51.4586 45.9903C51.4586 45.2906 51.4322 44.6815 51.3871 44.1665H51.6044ZM6.88542 41.0386C6.88542 40.7985 6.78269 40.6856 6.48899 40.6777V40.4538C6.86764 40.4795 7.20348 40.5052 7.52187 40.5052C7.84026 40.5052 8.17479 40.4795 8.55376 40.4538V40.6777C8.26138 40.6853 8.15931 40.7985 8.15931 41.0386L8.15833 42.7415L10.2396 42.7435V41.0386C10.2396 40.7985 10.1375 40.6856 9.84511 40.6777V40.4538C10.2228 40.4795 10.5589 40.5052 10.8767 40.5052C11.1947 40.5052 11.5309 40.4795 11.9076 40.4538V40.6777C11.6162 40.6853 11.5128 40.7985 11.5128 41.0386V45.5458C11.5128 45.7874 11.6159 45.8987 11.9076 45.9066V46.1266C11.5306 46.1016 11.1947 46.0752 10.8757 46.0752C10.5589 46.0752 10.2228 46.1016 9.84412 46.1266V45.9066C10.1375 45.8991 10.2396 45.7878 10.2396 45.5458V43.5676H8.15833V45.5458C8.15833 45.7874 8.26138 45.8987 8.55409 45.9066V46.1266C8.17545 46.1016 7.84059 46.0752 7.5222 46.0752C7.20414 46.0752 6.86797 46.1016 6.48932 46.1266V45.9066C6.7817 45.8991 6.88575 45.7878 6.88575 45.5458V41.0386H6.88542ZM15.0918 43.6611C15.3147 43.0526 15.59 42.3724 15.7875 41.6849H15.8053C15.9775 42.5531 16.1237 43.1043 16.3041 43.6611H15.0918ZM13.0093 46.123C13.3109 46.0973 13.6039 46.0716 13.9042 46.0716C14.1966 46.0716 14.4982 46.0973 14.7902 46.123V45.907C14.5057 45.8889 14.3856 45.7881 14.3856 45.6317C14.3856 45.5461 14.4112 45.4509 14.455 45.3301L14.8324 44.3153H16.5093L16.7849 45.152C16.8286 45.2633 16.8711 45.4612 16.8711 45.5803C16.8711 45.7786 16.7592 45.8477 16.4408 45.907V46.123C16.8105 46.0973 17.1803 46.0716 17.5507 46.0716C17.9106 46.0716 18.2813 46.0973 18.6428 46.123V45.907C18.3854 45.8395 18.2553 45.7269 18.1266 45.3482L16.5438 40.4545C16.2768 40.4802 16.0016 40.5058 15.7349 40.5058C15.4691 40.5058 15.2015 40.4802 14.9269 40.4545V40.6784C15.1587 40.6784 15.2541 40.8153 15.2541 40.9029C15.2541 40.9879 15.1926 41.1087 15.1422 41.2374L13.4561 45.5112C13.3701 45.7371 13.2582 45.874 13.0083 45.9073V46.123H13.0093ZM20.379 41.8476C20.3879 41.6075 20.4037 41.3659 20.4037 41.0231C20.4037 40.7551 20.3441 40.7215 20.0175 40.6777V40.4538C20.275 40.4795 20.5851 40.5052 20.8956 40.5052C21.2048 40.5052 21.515 40.4795 21.8241 40.4538L23.3295 44.4414L24.6785 40.4538C24.981 40.4795 25.2734 40.5052 25.5744 40.5052C25.8747 40.5052 26.1759 40.4795 26.4683 40.4538V40.6777C26.168 40.7034 26.1242 40.7985 26.1242 41.0307C26.1242 41.2723 26.1585 41.6589 26.1838 41.9503L26.4604 45.6235C26.4775 45.8474 26.7261 45.8806 26.8986 45.9063V46.1223C26.5279 46.0966 26.1506 46.0709 25.7805 46.0709C25.4018 46.0709 25.0324 46.0966 24.6781 46.1223V45.9063C25.1006 45.8549 25.2125 45.7776 25.2125 45.3828C25.2125 45.175 25.1858 44.7885 25.1611 44.505L24.9626 41.9424H24.9458L23.5096 46.17H22.7872L21.1439 41.891H21.1258L21.0576 44.4098C21.0497 44.8579 21.0316 45.0901 21.0316 45.3219C21.0316 45.7522 21.0744 45.8474 21.591 45.9063V46.1223C21.2469 46.0966 20.9285 46.0709 20.6016 46.0709C20.2845 46.0709 19.9651 46.0966 19.6988 46.1223V45.9063C20.0346 45.8806 20.1722 45.8036 20.1894 45.4427L20.379 41.8476ZM5.19337 45.8079C4.60466 46.2599 3.76044 46.4407 3.20927 46.4407C1.15865 46.4407 0 44.8504 0 43.2196C0 41.5522 1.15865 39.9385 3.38081 39.9412C4.15884 39.9412 4.71693 40.089 4.93556 40.1746C4.93556 40.8265 4.97046 41.4551 5.01886 42.0774H4.76994C4.61849 41.2825 4.06336 40.8608 3.2659 40.8608C2.18462 40.8608 1.34897 41.7129 1.34897 43.1521C1.34897 44.2363 2.24059 45.4634 3.4944 45.4634C4.02582 45.4634 4.79003 45.1721 5.30334 44.7401L5.19337 45.8079ZM14.5048 49.2328C14.5048 49.0471 14.4244 48.9595 14.1995 48.9536V48.7708C14.4919 48.7926 14.7504 48.8107 14.9953 48.8107C15.2749 48.8107 15.6805 48.7926 15.8725 48.7708V48.9536C15.5337 48.9671 15.4873 49.1337 15.4873 49.3181V52.5708H16.7151C17.154 52.5708 17.3334 52.3709 17.4457 51.8652H17.6617C17.5813 52.2972 17.5082 52.7236 17.5013 53.1559H14.1995V52.9731C14.4244 52.9672 14.5048 52.88 14.5048 52.6933V49.2328ZM18.7308 49.2545C18.7308 49.0688 18.6504 48.9812 18.4255 48.9753V48.7945H21.78C21.7838 49.1349 21.8014 49.475 21.8327 49.8139H21.6509C21.5848 49.4488 21.4919 49.322 21.1337 49.322H19.7126V50.6061H20.5957C20.8936 50.6061 20.9404 50.505 20.9799 50.2673H21.1613C21.1376 50.4775 21.1243 50.6887 21.1215 50.9001C21.1215 51.0783 21.1413 51.3697 21.1613 51.5303H20.9799C20.9401 51.2903 20.8936 51.1915 20.5957 51.1915H19.7126V52.5708H21.2061C21.565 52.5708 21.677 52.45 21.7905 51.8929H22.0118C21.9644 52.3123 21.938 52.7338 21.9325 53.1559H18.4255V52.9731C18.6504 52.9672 18.7308 52.88 18.7308 52.6933V49.2545ZM22.8083 52.9754C23.0002 52.9478 23.0868 52.8424 23.1533 52.6699L24.4556 49.38C24.4954 49.2782 24.5418 49.1877 24.5418 49.1222C24.5418 49.0547 24.4681 48.948 24.2889 48.948V48.7672C24.501 48.7873 24.7074 48.8071 24.9132 48.8071C25.1193 48.8071 25.3314 48.787 25.5378 48.7672L26.7594 52.5454C26.8598 52.8349 26.9586 52.9224 27.1578 52.9758V53.1565C26.8782 53.1365 26.5937 53.1167 26.3145 53.1167C26.0291 53.1167 25.7436 53.1368 25.4581 53.1565V52.9758C25.7041 52.928 25.79 52.8747 25.79 52.7242C25.79 52.631 25.7564 52.4779 25.7235 52.393L25.5108 51.7506H24.2162L23.9238 52.5313C23.8902 52.6225 23.8701 52.6959 23.8701 52.7634C23.8701 52.8803 23.9633 52.9616 24.1823 52.9758V53.1565C23.9564 53.1365 23.7246 53.1167 23.4984 53.1167C23.2653 53.1167 23.0407 53.1368 22.8076 53.1565V52.9754H22.8083ZM25.3511 51.2468C25.2125 50.8165 25.0986 50.3928 24.9656 49.7227H24.9527C24.8003 50.2518 24.5873 50.7773 24.4147 51.2468H25.3511ZM30.7101 51.6018C30.7101 51.3361 30.5899 51.3239 30.292 51.3183V51.0944C30.5639 51.1161 30.8365 51.1362 31.1151 51.1362C31.4147 51.1362 31.7068 51.1161 32.0051 51.0944V51.3041C31.7723 51.3107 31.6534 51.3697 31.6534 51.6693V53.1562H31.2675L31.1151 52.7101C30.6969 53.1022 30.2577 53.2412 29.807 53.2412C28.5581 53.2412 27.7613 52.2122 27.7613 51.0174C27.7613 49.5762 28.7247 48.7037 30.1589 48.7037C30.6176 48.7037 31.1115 48.7893 31.4684 49.0128C31.4684 49.3381 31.4819 49.7132 31.5089 50.1705H31.3173C31.2317 49.5802 30.6703 49.2888 30.1198 49.2888C29.1955 49.2888 28.7448 49.9944 28.7448 50.8507C28.7448 51.6752 29.2097 52.6044 29.9795 52.6044C30.4516 52.6044 30.7101 52.3851 30.7101 52.0795V51.6018ZM33.3405 49.2328C33.3405 49.0471 33.2602 48.9595 33.0357 48.9536V48.7708C33.289 48.7967 33.5435 48.81 33.7982 48.8107C34.1443 48.8107 34.4169 48.7926 34.6826 48.7708V48.9536C34.3958 48.9671 34.3237 49.0191 34.3237 49.2782V51.7598C34.3237 52.5115 34.6362 52.6557 35.1738 52.6557C35.7115 52.6557 36.024 52.4977 36.024 51.7598V49.2782C36.024 49.0191 35.9512 48.9671 35.6644 48.9536V48.7708C35.9315 48.7926 36.2028 48.8107 36.5488 48.8107C36.8274 48.8107 37.1 48.7926 37.312 48.7708V48.9536C37.0868 48.9595 37.0065 49.0467 37.0065 49.2328V51.6219C37.0065 52.8507 36.3691 53.2412 35.1738 53.2412C33.9777 53.2412 33.3405 52.8507 33.3405 51.715V49.2328ZM38.7173 49.2545C38.7173 49.0688 38.6389 48.9812 38.4124 48.9753V48.7945H41.7679C41.7748 49.159 41.7873 49.455 41.8199 49.8139H41.6385C41.5723 49.4488 41.4791 49.322 41.1202 49.322H39.7015V50.587H40.5832C40.8815 50.587 40.9286 50.4873 40.9691 50.2482H41.1492C41.1262 50.4576 41.1129 50.6678 41.1094 50.8784C41.1094 51.0585 41.1304 51.3499 41.1492 51.5106H40.9691C40.9286 51.2706 40.8815 51.1718 40.5832 51.1718H39.7015V52.5711H41.1933C41.5522 52.5711 41.6655 52.4503 41.7784 51.8932H41.999C41.9514 52.3126 41.9248 52.7341 41.9193 53.1562H38.4121V52.9735C38.6386 52.9676 38.717 52.8803 38.717 52.6936V49.2545H38.7173ZM21.6951 38.8786C23.156 37.2054 25.3044 36.1488 27.7014 36.1488C30.1642 36.1488 32.3673 37.2666 33.8305 39.0229L34.217 38.66C32.659 36.8073 30.3232 35.6318 27.7122 35.6318C25.1691 35.6318 22.888 36.7477 21.3306 38.5198L21.6951 38.8786ZM27.0205 34.6523L24.6873 35.1376L24.0996 32.3113L26.4008 31.8335L26.5088 32.3505L24.9965 32.6656L25.1193 33.2586L26.5625 32.9576L26.6701 33.4765L25.2267 33.7758L25.3683 34.4561L26.9125 34.1344L27.0205 34.6523ZM31.4723 32.8286L30.0806 32.5352L29.9489 33.1634L31.3393 33.4587L31.2303 33.9763L29.8402 33.681L29.5952 34.8426L28.8067 34.674L29.4016 31.8516L31.5823 32.3113L31.4723 32.8286ZM34.8364 37.6591L34.1443 37.0052L34.2536 36.3845L33.0659 35.5594L32.5405 35.8906L31.7545 35.4508L34.5585 33.7801L35.325 34.3112L34.8364 37.6591ZM34.5983 34.573L33.5384 35.2404L34.3803 35.8254L34.5983 34.573ZM22.0135 36.5017C21.4962 36.912 20.619 37.2472 19.9777 36.4935L19.0511 35.3065L19.6705 34.8173L20.5792 35.9845C20.9071 36.371 21.3197 36.2956 21.6483 36.0378C21.9762 35.7807 22.1448 35.3954 21.8459 34.9858L20.9358 33.8199L21.5551 33.3326L22.482 34.5196C23.0351 35.2786 22.6924 35.9621 22.0135 36.5017Z" fill="black"/>
<path fill-rule="evenodd" clip-rule="evenodd" d="M37.6769 34.8406C35.19 32.226 31.6775 30.5945 27.7847 30.5945C23.8451 30.5945 20.2947 32.2638 17.8042 34.9335L17.3831 34.5057C19.9994 31.7663 23.6881 30.0595 27.7755 30.0595C31.8303 30.0595 35.4913 31.7403 38.1036 34.4402L37.6769 34.8406ZM43.103 55.3579C42.9612 55.3583 42.8206 55.3306 42.6895 55.2766C42.5583 55.2226 42.4391 55.1432 42.3386 55.0431C42.2381 54.9429 42.1584 54.8239 42.104 54.6929C42.0496 54.5619 42.0215 54.4215 42.0214 54.2796C42.0222 53.9931 42.1365 53.7186 42.3392 53.5161C42.5419 53.3137 42.8165 53.1997 43.103 53.1993V53.3027C42.8447 53.3037 42.5972 53.407 42.4149 53.5902C42.2327 53.7733 42.1305 54.0212 42.1307 54.2796C42.1299 54.5384 42.2318 54.787 42.4141 54.9706C42.5964 55.1543 42.8442 55.2581 43.103 55.2591V55.3579Z" fill="black"/>
<path fill-rule="evenodd" clip-rule="evenodd" d="M42.6579 53.6353H43.0938C43.2604 53.6353 43.3575 53.659 43.4398 53.7228C43.4791 53.7524 43.5111 53.7907 43.5331 53.8347C43.5551 53.8787 43.5665 53.9272 43.5666 53.9764C43.5666 54.1275 43.4579 54.2464 43.2831 54.2819C43.3687 54.3076 43.4072 54.3297 43.4438 54.3731C43.4896 54.4284 43.5093 54.4864 43.5436 54.6665L43.563 54.7636C43.5758 54.8351 43.5798 54.8473 43.6041 54.8884H43.4741C43.4477 54.8331 43.4418 54.8114 43.427 54.7264C43.3812 54.4686 43.3756 54.4505 43.3118 54.3896C43.2624 54.3418 43.1949 54.3261 43.052 54.3261H42.7774V54.8888H42.6579V53.6353ZM43.0977 54.2283C43.3118 54.2283 43.4418 54.1331 43.4418 53.976C43.4418 53.8114 43.3157 53.7245 43.0773 53.7245H42.7757V54.2279H43.0977V54.2283Z" fill="black"/>
<path fill-rule="evenodd" clip-rule="evenodd" d="M43.103 55.3579C43.7003 55.3579 44.1873 54.8782 44.1873 54.2796C44.1873 53.6811 43.7003 53.1993 43.103 53.1993V53.3027C43.6394 53.3027 44.0707 53.74 44.074 54.2796C44.074 54.8223 43.6394 55.2591 43.103 55.2591V55.3579Z" fill="black"/>
</svg>
